<svg width="39" height="39" viewBox="0 0 39 39" fill="none" xmlns="http://www.w3.org/2000/svg">
<g clip-path="url(#clip0)">
<path fill-rule="evenodd" clip-rule="evenodd" d="M7.0655 34.5166L13.8661 22.737L23.0799 38.6718C21.9196 38.8879 20.7236 39 19.5 39C14.7761 39 10.4406 37.3165 7.0655 34.5166V34.5166ZM37.8918 25.9903C35.971 31.4259 31.707 35.7598 26.3153 37.7748L19.5114 25.9903H37.8918ZM13.8645 16.2403L4.6735 32.1604C1.75987 28.7528 0 24.3295 0 19.5C0 18.3885 0.092625 17.2998 0.271375 16.2403H13.8645ZM34.3119 6.82337C37.2336 10.2326 39 14.6624 39 19.5C39 20.6034 38.9074 21.6856 38.7319 22.7403H25.1257L34.3119 6.82337V6.82337ZM15.9413 0.325C17.095 0.112125 18.2845 0 19.5 0C24.2174 0 28.5448 1.67862 31.9183 4.47037L25.1257 16.2354L15.9413 0.325V0.325ZM19.5 12.9902H1.11475C3.042 7.55625 7.30925 3.22725 12.7042 1.21875L19.5 12.9902Z" fill="#AFADFF"/>
</g>
<defs>
<clipPath id="clip0">
<rect width="39" height="39" fill="white"/>
</clipPath>
</defs>
</svg>
